<svg width="24" height="24" viewBox="0 0 24 24" fill="none" xmlns="http://www.w3.org/2000/svg">
<path fill-rule="evenodd" clip-rule="evenodd" d="M9.8766 15.2061C6.0326 15.2061 2.7496 15.7871 2.7496 18.1151C2.7496 20.4431 6.0126 21.0451 9.8766 21.0451C13.7216 21.0451 17.0036 20.4631 17.0036 18.1361C17.0036 15.8091 13.7416 15.2061 9.8766 15.2061Z" stroke="#959CB6" stroke-width="2" stroke-linecap="round" stroke-linejoin="round"/>
<path fill-rule="evenodd" clip-rule="evenodd" d="M9.8766 11.886C12.3996 11.886 14.4446 9.841 14.4446 7.318C14.4446 4.795 12.3996 2.75 9.8766 2.75C7.3546 2.75 5.3096 4.795 5.3096 7.318C5.3006 9.832 7.3306 11.877 9.8456 11.886H9.8766Z" stroke="#959CB6" stroke-width="2" stroke-linecap="round" stroke-linejoin="round"/>
<path d="M19.2037 8.66895V12.6789" stroke="#959CB6" stroke-width="2" stroke-linecap="round" stroke-linejoin="round"/>
<path d="M21.2496 10.6738H17.1596" stroke="#959CB6" stroke-width="2" stroke-linecap="round" stroke-linejoin="round"/>
</svg>
