<svg width="24" height="19" viewBox="0 0 24 19" fill="none" xmlns="http://www.w3.org/2000/svg">
<path d="M3.84366 0.908756C3.65616 0.969694 3.16866 1.45251 2.64835 2.09469C0.454597 4.80876 -0.431341 8.35251 0.210847 11.8494C0.623347 14.0759 1.74366 16.2697 3.25772 17.8072C3.63741 18.1963 3.76397 18.2947 3.93272 18.3369C4.51397 18.4869 5.10928 18.0416 5.10928 17.4556C5.10928 17.1697 5.00616 16.9588 4.69678 16.6306C3.47803 15.3228 2.61085 13.7759 2.20772 12.1681C1.34053 8.75095 2.22647 5.27282 4.6171 2.68532C4.81397 2.46969 5.00616 2.22594 5.04366 2.13688C5.20303 1.75719 5.05772 1.27438 4.70616 1.02594C4.49053 0.875944 4.11085 0.824381 3.84366 0.908756Z" fill="#EDA793"/>
<path d="M19.4016 0.960735C19.0032 1.17167 18.7969 1.66855 18.9376 2.09042C18.9657 2.18417 19.1579 2.44199 19.3688 2.66699C20.1235 3.49199 20.6251 4.22324 21.0938 5.18886C22.6079 8.2873 22.4391 11.9342 20.6391 14.8873C20.311 15.4264 19.9547 15.8998 19.4391 16.4717C19.2094 16.7248 18.9938 17.006 18.9563 17.0951C18.6704 17.7889 19.3313 18.5295 20.0672 18.3373C20.4469 18.2389 21.4735 17.0857 22.1766 15.9701C23.8501 13.3076 24.3985 10.0545 23.6954 6.91855C23.2313 4.86542 22.1204 2.8123 20.6672 1.32167C20.1938 0.83886 19.8329 0.735735 19.4016 0.960735Z" fill="#EDA793"/>
<path d="M10.9217 1.48612C7.14359 2.00175 4.22328 5.00175 3.79672 8.79862C3.67484 9.91425 3.80609 11.1518 4.17172 12.258C4.36859 12.858 4.90765 13.9174 5.28265 14.4471C5.69047 15.0236 6.6514 15.9799 7.21859 16.3783C9.15922 17.7471 11.4936 18.2158 13.828 17.7002C14.728 17.4986 15.7358 17.0861 16.0077 16.8049C16.4295 16.3689 16.2889 15.6096 15.7405 15.3424C15.4592 15.2111 15.178 15.2158 14.8592 15.3658C13.4248 16.0455 11.9061 16.2049 10.4483 15.8346C8.36703 15.3096 6.67953 13.7627 5.98578 11.7518C5.72328 10.9783 5.65297 10.5424 5.65297 9.66581C5.65297 8.83144 5.71859 8.37206 5.93422 7.71113C6.60453 5.658 8.33422 4.02206 10.3827 3.50175C11.892 3.11738 13.4858 3.28144 14.8264 3.95175C16.603 4.84706 17.8733 6.5205 18.267 8.48456C18.3842 9.06581 18.3795 10.2893 18.2623 10.8611C18.1452 11.4143 17.9014 12.1127 17.6436 12.6236C17.4842 12.9424 17.4373 13.0924 17.4373 13.2611C17.442 14.0721 18.3608 14.4986 18.9655 13.9689C19.1717 13.7861 19.5655 13.0127 19.7998 12.333C20.8452 9.27675 20.0295 5.96269 17.6858 3.708C15.8905 1.97831 13.3686 1.15331 10.9217 1.48612Z" fill="#EDA793"/>
<path d="M11.5732 5.27285C11.4607 5.33379 11.3061 5.47441 11.2264 5.58223L11.0857 5.78379L11.0717 7.87441C11.0623 9.42598 11.0717 10.0213 11.1139 10.176C11.217 10.551 11.6201 10.8369 12.0279 10.8369C12.2248 10.8369 12.6279 10.6354 12.7357 10.4807C12.9326 10.2041 12.942 10.0682 12.9279 7.87441L12.9139 5.78379L12.7732 5.58223C12.5951 5.3291 12.2904 5.16504 11.9998 5.16504C11.8592 5.16504 11.7045 5.20254 11.5732 5.27285Z" fill="#EDA793"/>
<path d="M11.5826 12.3463C10.706 12.7775 11.0435 14.1228 12.0279 14.1182C12.2248 14.1182 12.6279 13.9166 12.7357 13.7619C13.3123 12.951 12.4638 11.9103 11.5826 12.3463Z" fill="#EDA793"/>
</svg>
