<svg width="36" height="37" viewBox="0 0 36 37" fill="none" xmlns="http://www.w3.org/2000/svg">
<rect y="0.536133" width="36" height="36" rx="8" fill="#8EC4D2"/>
<g clip-path="url(#clip0_56_220)">
<path d="M11.807 7.65719C11.6225 7.71051 11.3641 7.98531 11.3107 8.17398C11.2861 8.26012 11.2656 8.53492 11.2656 8.78512V9.24449L10.4986 9.265C9.51016 9.28961 9.0959 9.39625 8.50938 9.7818C7.78751 10.2535 7.33633 10.8892 7.09024 11.7752C7.02461 12.0007 7.02051 12.6078 7.02051 18.9324C7.02051 26.4793 7.00411 25.9255 7.2461 26.5695C7.5168 27.2996 8.31251 28.0953 9.04258 28.366C9.68653 28.608 9.05079 28.5916 17.5 28.5916C24.5916 28.5916 25.252 28.5875 25.4775 28.5218C25.9123 28.4029 26.183 28.2839 26.4906 28.083C27.4135 27.48 27.9713 26.4875 27.9754 25.4498C27.9795 25.0929 27.9713 25.0437 27.8688 24.892C27.7006 24.6336 27.4996 24.531 27.1756 24.531C26.9541 24.531 26.8803 24.5515 26.7408 24.6418C26.4906 24.8058 26.4045 24.9781 26.3594 25.4005C26.2815 26.0773 25.9615 26.549 25.3832 26.8197L25.1084 26.9509H17.5H9.89161L9.6168 26.8197C9.23536 26.6392 8.99747 26.4095 8.8129 26.0363L8.66114 25.7246V18.9365V12.1443L8.79239 11.8695C8.97286 11.488 9.20254 11.2502 9.57579 11.0656L9.8875 10.9138L10.5725 10.9015L11.2574 10.8851L11.2697 11.4347C11.2861 11.9228 11.2943 11.9966 11.3846 12.1361C11.4379 12.2222 11.5568 12.3412 11.6471 12.4027C11.7865 12.497 11.8604 12.5134 12.0859 12.5134C12.3115 12.5134 12.3854 12.497 12.5248 12.4027C12.615 12.3412 12.734 12.2222 12.7873 12.1361C12.8775 11.9966 12.8857 11.9228 12.8981 11.4347L12.9145 10.8933H14.793H16.6715L16.6879 11.4388C16.7002 11.9515 16.7084 11.9966 16.8109 12.1525C16.9791 12.4109 17.1801 12.5134 17.5041 12.5134C17.7256 12.5134 17.7994 12.4929 17.9389 12.4027C18.0291 12.3412 18.1481 12.2222 18.2014 12.1361C18.2916 11.9966 18.2998 11.9228 18.3121 11.4347L18.3285 10.8933H20.207H22.0856L22.102 11.4347C22.1143 11.9228 22.1225 11.9966 22.2127 12.1361C22.266 12.2222 22.385 12.3412 22.4752 12.4027C22.6147 12.497 22.6885 12.5134 22.9141 12.5134C23.1397 12.5134 23.2135 12.497 23.3529 12.4027C23.4432 12.3412 23.5621 12.2222 23.6154 12.1361C23.7057 11.9966 23.7139 11.9228 23.7303 11.4347L23.7426 10.8851L24.4275 10.9015C25.092 10.9138 25.1166 10.9179 25.3832 11.0451C25.7647 11.2255 26.0025 11.4552 26.1871 11.8285L26.3389 12.1402L26.3594 16.8201L26.3799 21.5L26.4906 21.6681C26.6588 21.9224 26.8598 22.0291 27.1797 22.0291C27.4996 22.0291 27.7006 21.9224 27.8688 21.6681L27.9795 21.5V16.7627C27.9795 12.4601 27.9713 11.9966 27.9098 11.7752C27.6678 10.8974 27.2043 10.2494 26.4947 9.7859C25.9 9.39625 25.4898 9.28961 24.5055 9.265L23.7426 9.24449L23.7262 8.70309C23.7139 8.19449 23.7057 8.14938 23.6031 7.99352C23.435 7.73922 23.234 7.63258 22.9141 7.63258C22.5941 7.63258 22.3932 7.73922 22.225 7.99352C22.1225 8.14938 22.1143 8.19449 22.102 8.70719L22.0856 9.2527H20.207H18.3285L18.3121 8.70719C18.2998 8.2232 18.2916 8.14938 18.2014 8.00992C18.1481 7.92379 18.0291 7.80484 17.9389 7.74332C17.7994 7.65309 17.7256 7.63258 17.5041 7.63258C17.1801 7.63258 16.9791 7.73512 16.8109 7.99352C16.7084 8.14938 16.7002 8.19449 16.6879 8.70719L16.6715 9.2527H14.793H12.9145L12.8981 8.70719C12.8857 8.2232 12.8775 8.14938 12.7873 8.00992C12.5945 7.6982 12.168 7.54645 11.807 7.65719Z" fill="white"/>
<path d="M10.8227 14.6301C10.6299 14.6875 10.3756 14.9541 10.3182 15.1674C10.2238 15.5324 10.3674 15.9139 10.6791 16.1066L10.835 16.2051H17.5H24.1651L24.3209 16.1066C24.407 16.0533 24.526 15.9344 24.5875 15.8441C24.6818 15.7047 24.6983 15.6309 24.6983 15.4053C24.6983 15.1797 24.6818 15.1059 24.5875 14.9664C24.526 14.8762 24.407 14.7572 24.3209 14.7039L24.1651 14.6055L17.5615 14.5973C13.4682 14.5932 10.9047 14.6055 10.8227 14.6301Z" fill="white"/>
<path d="M10.8227 18.6496C10.6299 18.707 10.3756 18.9736 10.3182 19.1869C10.2238 19.552 10.3674 19.9334 10.6791 20.1262L10.835 20.2246H17.5H24.1651L24.3209 20.1262C24.407 20.0729 24.526 19.9539 24.5875 19.8637C24.6818 19.7242 24.6983 19.6504 24.6983 19.4248C24.6983 19.1992 24.6818 19.1254 24.5875 18.9859C24.526 18.8957 24.407 18.7768 24.3209 18.7234L24.1651 18.625L17.5615 18.6168C13.4682 18.6127 10.9047 18.625 10.8227 18.6496Z" fill="white"/>
<path d="M10.8227 22.7922C10.6299 22.8496 10.3756 23.1162 10.3182 23.3295C10.2238 23.6945 10.3674 24.076 10.6791 24.2687L10.835 24.3672H15.4533H20.0676L20.2358 24.2564C20.4942 24.0883 20.5967 23.8873 20.5967 23.5633C20.5967 23.3418 20.5762 23.268 20.4859 23.1285C20.4244 23.0383 20.3055 22.9193 20.2193 22.866L20.0635 22.7676L15.5108 22.7594C12.7094 22.7553 10.9047 22.7676 10.8227 22.7922Z" fill="white"/>
</g>
<defs>
<clipPath id="clip0_56_220">
<rect width="21" height="21" fill="white" transform="translate(7 7.6123)"/>
</clipPath>
</defs>
</svg>
