<svg width="46" height="45" viewBox="0 0 46 45" fill="none" xmlns="http://www.w3.org/2000/svg">
<path d="M16.0182 11.8276C16.8319 11.3926 17.7075 11.2538 18.5607 11.2538C19.5469 11.2538 20.6944 11.5782 21.6188 12.3357C22.59 13.1307 23.2482 14.3495 23.2482 15.9395C23.2482 17.7676 21.9563 18.7595 21.2288 19.3182L21.0694 19.442C20.2744 20.0663 19.9669 20.4001 19.9669 21.0957C19.9669 21.4687 19.8187 21.8263 19.555 22.0901C19.2913 22.3538 18.9336 22.502 18.5607 22.502C18.1877 22.502 17.83 22.3538 17.5663 22.0901C17.3026 21.8263 17.1544 21.4687 17.1544 21.0957C17.1544 18.9695 18.4875 17.8932 19.3332 17.2295C20.295 16.4738 20.4357 16.3051 20.4357 15.9395C20.4357 15.1951 20.1563 14.7732 19.8357 14.5126C19.4725 14.2266 19.0248 14.069 18.5625 14.0645C18.0094 14.0645 17.6288 14.1563 17.3438 14.3082C17.0757 14.4507 16.7925 14.702 16.5188 15.2082C16.341 15.5364 16.0401 15.7805 15.6823 15.8869C15.3246 15.9933 14.9392 15.9532 14.611 15.7754C14.2828 15.5976 14.0386 15.2967 13.9323 14.939C13.8259 14.5812 13.866 14.1958 14.0438 13.8676C14.5388 12.9563 15.1913 12.2682 16.02 11.8257M18.5607 28.127C19.0579 28.127 19.5348 27.9294 19.8865 27.5778C20.2381 27.2261 20.4357 26.7492 20.4357 26.252C20.4357 25.7547 20.2381 25.2778 19.8865 24.9261C19.5348 24.5745 19.0579 24.377 18.5607 24.377C18.0634 24.377 17.5865 24.5745 17.2348 24.9261C16.8832 25.2778 16.6857 25.7547 16.6857 26.252C16.6857 26.7492 16.8832 27.2261 17.2348 27.5778C17.5865 27.9294 18.0634 28.127 18.5607 28.127ZM18.5607 5.62695C16.1953 5.62656 13.8681 6.22278 11.7944 7.36047C9.72068 8.49815 7.96742 10.1405 6.69686 12.1356C5.42631 14.1307 4.67952 16.414 4.52559 18.7743C4.37167 21.1346 4.81559 23.4956 5.81628 25.6388L4.4569 30.9676C4.35713 31.359 4.36021 31.7696 4.46585 32.1594C4.57149 32.5493 4.7761 32.9053 5.05984 33.1928C5.34357 33.4803 5.6968 33.6896 6.08525 33.8004C6.4737 33.9112 6.88419 33.9197 7.2769 33.8251C8.68315 33.4876 10.845 32.9682 12.7725 32.5088C14.6845 33.371 16.7651 33.7946 18.862 33.7486C20.9589 33.7025 23.0189 33.188 24.8912 32.2428C26.7635 31.2975 28.4006 29.9454 29.6827 28.2855C30.9647 26.6256 31.8593 24.6999 32.3007 22.6495C32.7422 20.5991 32.7195 18.4759 32.2342 16.4355C31.7488 14.395 30.8132 12.489 29.4959 10.8569C28.1786 9.22487 26.5128 7.90815 24.6207 7.00322C22.7286 6.09828 20.658 5.62805 18.5607 5.62695ZM7.31065 19.6895C7.31139 17.2431 8.10951 14.8637 9.58405 12.9118C11.0586 10.9598 13.1292 9.54167 15.4822 8.87226C17.8351 8.20284 20.3421 8.31862 22.6234 9.20206C24.9046 10.0855 26.8357 11.6884 28.124 13.768C29.4124 15.8476 29.9878 18.2904 29.7631 20.7264C29.5383 23.1623 28.5257 25.4587 26.8786 27.2674C25.2315 29.0762 23.0397 30.2987 20.6354 30.7499C18.231 31.201 15.7452 30.8562 13.5544 29.7676L13.0988 29.5407L12.6019 29.6588L7.3744 30.9095C7.7494 29.447 8.24065 27.512 8.66815 25.832L8.7994 25.3145L8.55565 24.8401C7.73512 23.2474 7.30694 21.4811 7.31065 19.6895ZM27.9375 39.3769C24.3904 39.3819 20.9732 38.0418 18.375 35.627H18.5625C19.9088 35.627 21.2157 35.4601 22.4644 35.1451C24.0844 36.0488 25.9519 36.5645 27.9394 36.5645C29.7394 36.5645 31.4382 36.1426 32.9457 35.3926L33.3994 35.1657L33.8963 35.2838C35.625 35.6963 37.5807 36.1182 39.0338 36.4276C38.6468 34.7673 38.2456 33.1103 37.83 31.4569L37.6988 30.9395L37.9425 30.4651C38.7637 28.8726 39.1907 27.1062 39.1875 25.3145C39.1885 23.4336 38.7175 21.5825 37.8176 19.9308C36.9178 18.2792 35.6178 16.8797 34.0369 15.8607C33.7063 14.5214 33.202 13.2311 32.5369 12.0226C34.3983 12.6671 36.1035 13.6954 37.5423 15.0407C38.9811 16.3861 40.1213 18.0187 40.8891 19.8327C41.6569 21.6467 42.0352 23.6017 41.9995 25.5712C41.9638 27.5407 41.5149 29.4807 40.6819 31.2657C41.1563 33.1557 41.6382 35.2032 41.9419 36.5213C42.0311 36.9034 42.0224 37.3018 41.9168 37.6796C41.8111 38.0574 41.6119 38.4025 41.3375 38.6829C41.063 38.9633 40.7223 39.17 40.3469 39.2837C39.9714 39.3975 39.5733 39.4147 39.1894 39.3338C37.3643 38.9543 35.5436 38.5543 33.7275 38.1338C31.9081 38.9558 29.934 39.3796 27.9375 39.3769Z" fill="#EDA793"/>
</svg>
