<svg width="53" height="50" viewBox="0 0 53 50" fill="none" xmlns="http://www.w3.org/2000/svg">
<path d="M33.516 6.51328C20.6318 14.2941 13.4781 28.5242 9.17877 42.4412C8.95773 43.1564 8.6875 43.8742 8.44061 44.5728C7.75023 43.1799 3.03941 31.6121 1.13752 32.3193C0.0260006 32.7327 0.661821 34.2182 0.906433 34.8175C2.67699 39.1495 4.40669 43.0332 6.52224 47.2225C8.11452 50.3762 11.0775 49.5541 14.0126 48.5943C18.4936 47.1288 18.8573 46.7087 23.4468 45.022C24.2033 44.7439 24.9981 44.519 25.6992 44.1716C26.5235 43.7625 27.4074 42.8968 26.9697 41.9533C26.4737 40.8839 25.3947 40.9594 24.473 41.352C24.2806 41.4345 24.0852 41.51 23.888 41.5809C21.7217 42.3586 11.8897 46.5074 11.5623 45.806C11.4517 45.5698 11.4891 45.295 11.5309 45.0378C12.7344 37.6156 15.9216 30.5454 19.6869 24.0854C22.2202 19.7383 25.4715 15.8117 29.2604 12.4997C32.3049 9.83807 35.7374 7.5783 39.4765 6.01859C43.4859 4.34579 47.3662 4.00112 51.6495 3.74669C54.1153 3.60047 52.1623 1.25122 50.7903 0.986599C49.2825 0.695331 47.6682 1.2184 46.2034 1.52333C41.5694 2.49042 37.3377 4.20555 33.516 6.51328Z" fill="#8EC4D2"/>
</svg>
