<svg width="48" height="49" viewBox="0 0 48 49" fill="none" xmlns="http://www.w3.org/2000/svg">
<rect y="0.806152" width="47.6122" height="47.6122" rx="23.8061" fill="#8EC4D2"/>
<path d="M31.0829 24.6557L25.4739 21.4048L28.3015 14.6188C28.4002 14.4172 28.4461 14.1939 28.435 13.9698C28.4239 13.7457 28.3561 13.528 28.238 13.3372C28.1198 13.1464 27.9552 12.9887 27.7596 12.8788C27.5639 12.769 27.3435 12.7105 27.1191 12.709C26.8209 12.7083 26.5311 12.808 26.2965 12.992L26.2039 13.0714L16.2847 22.4616C16.1356 22.6032 16.0215 22.7775 15.9514 22.9709C15.8813 23.1642 15.8572 23.3712 15.8809 23.5755C15.9047 23.7797 15.9756 23.9757 16.0882 24.1478C16.2007 24.3199 16.3518 24.4634 16.5294 24.5671L22.1397 27.8206L19.279 34.6847C19.161 34.9647 19.1431 35.2768 19.2283 35.5684C19.3136 35.86 19.4967 36.1134 19.7469 36.2858C19.9971 36.4582 20.299 36.5391 20.6019 36.5148C20.9048 36.4906 21.19 36.3627 21.4096 36.1527L31.3288 26.7599C31.4776 26.6182 31.5914 26.4438 31.6613 26.2506C31.7311 26.0573 31.755 25.8505 31.7312 25.6464C31.7073 25.4423 31.6363 25.2465 31.5238 25.0746C31.4113 24.9027 31.2603 24.7593 31.0829 24.6557Z" fill="white"/>
</svg>
