<svg width="57" height="56" viewBox="0 0 57 56" fill="none" xmlns="http://www.w3.org/2000/svg">
<rect x="0.425171" width="55.6122" height="55.6122" rx="27.8061" fill="#8EC4D2"/>
<path d="M36.7306 27.8574L30.1792 24.0603L33.482 16.134C33.5972 15.8986 33.6509 15.6378 33.6379 15.376C33.6249 15.1142 33.5457 14.86 33.4077 14.6371C33.2698 14.4142 33.0775 14.23 32.849 14.1017C32.6204 13.9734 32.363 13.9051 32.1009 13.9033C31.7526 13.9025 31.4141 14.0189 31.1401 14.2339L31.0319 14.3266L19.446 25.2946C19.2719 25.46 19.1386 25.6636 19.0567 25.8895C18.9749 26.1153 18.9467 26.357 18.9744 26.5956C19.0022 26.8342 19.085 27.0631 19.2165 27.2641C19.3479 27.4651 19.5244 27.6328 19.7318 27.7539L26.2848 31.554L22.9434 39.5715C22.8056 39.8985 22.7847 40.263 22.8843 40.6037C22.9838 40.9443 23.1977 41.2402 23.49 41.4416C23.7822 41.6429 24.1349 41.7374 24.4886 41.7091C24.8424 41.6808 25.1756 41.5314 25.4321 41.2862L37.018 30.3151C37.1918 30.1496 37.3247 29.9459 37.4062 29.7202C37.4878 29.4945 37.5157 29.2529 37.4879 29.0145C37.46 28.7761 37.3771 28.5475 37.2457 28.3467C37.1143 28.1458 36.9379 27.9783 36.7306 27.8574Z" fill="white"/>
</svg>
