<svg width="41" height="41" viewBox="0 0 41 41" fill="none" xmlns="http://www.w3.org/2000/svg">
<g clip-path="url(#clip0_56_210)">
<path d="M18.5625 0.692379C17.7109 0.918941 17.1016 1.2705 16.4375 1.94238C15.4609 2.91113 15.0312 3.98925 15.0312 5.43457C15.0312 6.10644 15.0156 6.18457 14.8359 6.35644C14.5 6.69238 14.3125 6.62207 13.4609 5.80175C12.5156 4.91113 11.4844 4.48925 10.2266 4.48925C8.97656 4.48925 8.00781 4.88769 6.9375 5.833C5.10938 7.44238 4.44531 8.66113 4.46094 10.3408C4.47656 11.5986 4.97656 12.7471 5.89062 13.6221C6.53906 14.2549 6.64844 14.5518 6.32031 14.8721C6.14844 15.0518 6.07031 15.0674 5.39844 15.0674C3.95312 15.0674 2.875 15.4971 1.90625 16.4736C0.820312 17.5518 0.5 18.4736 0.5 20.4893C0.5 21.9736 0.609375 22.5986 1.01562 23.4268C1.60938 24.6377 3.07031 25.7549 4.15625 25.833C5 25.8877 5.72656 25.2705 5.79688 24.4268C5.82031 24.083 5.78906 23.9424 5.60156 23.583C5.39844 23.2002 5.3125 23.1221 4.75781 22.833C4.30469 22.5986 4.07031 22.4189 3.89844 22.1846L3.66406 21.8486V20.5439C3.66406 19.2549 3.66406 19.2314 3.875 18.9189C4.25 18.3564 4.51562 18.2471 5.72656 18.1846C6.98438 18.1221 7.44531 17.9736 8.17969 17.4268C9.24219 16.6064 9.8125 15.1611 9.57031 13.8564C9.42969 13.0908 9.10156 12.5127 8.375 11.7314C7.59375 10.8955 7.45312 10.5596 7.61719 9.87988C7.69531 9.5205 7.80469 9.38769 8.57812 8.61425C9.35156 7.84082 9.48438 7.73144 9.84375 7.65332C10.5234 7.48925 10.8594 7.62988 11.6953 8.41113C12.4766 9.13769 13.0547 9.46582 13.8203 9.60644C15.1328 9.84863 16.5625 9.29394 17.3906 8.21582C17.9375 7.48144 18.0859 7.0205 18.1484 5.76269C18.2109 4.55175 18.3203 4.28613 18.8828 3.91113C19.1953 3.70019 19.2188 3.70019 20.5 3.70019C21.7812 3.70019 21.8047 3.70019 22.1172 3.91113C22.6797 4.28613 22.7891 4.55175 22.8516 5.76269C22.9141 7.0205 23.0625 7.48144 23.6094 8.21582C24.4297 9.27832 25.875 9.84863 27.1797 9.60644C27.9531 9.46582 28.5234 9.13769 29.3047 8.41113C30.1406 7.62988 30.4922 7.48925 31.1719 7.65332C31.5078 7.73144 31.6641 7.85644 32.4219 8.61425C33.1797 9.37207 33.3047 9.52832 33.3828 9.86425C33.5469 10.5439 33.3828 10.9424 32.5625 11.8018C31.9375 12.458 31.6562 12.9424 31.4688 13.6846C31.1328 14.9893 31.7031 16.5674 32.8203 17.4268C33.5547 17.9814 34.0156 18.1221 35.2812 18.1846C36.25 18.2393 36.375 18.2627 36.6562 18.4502C36.8281 18.5596 37.0469 18.7861 37.1484 18.9502C37.3281 19.2314 37.3359 19.3174 37.3359 20.5439C37.3359 21.8174 37.3359 21.8408 37.125 22.1533C36.75 22.7158 36.4844 22.8252 35.2734 22.8877C34.0156 22.9502 33.5547 23.0986 32.8203 23.6455C31.7031 24.5049 31.1328 26.083 31.4688 27.3877C31.6562 28.1455 31.9219 28.5908 32.6406 29.3564C33.4062 30.1768 33.5469 30.5283 33.3828 31.208C33.3047 31.5439 33.1797 31.7002 32.4219 32.458C31.6484 33.2314 31.5156 33.3408 31.1562 33.4189C30.4766 33.583 30.1406 33.4424 29.3125 32.6689C28.5547 31.958 28.1094 31.6924 27.3516 31.5049C26.0469 31.1689 24.4688 31.7393 23.6094 32.8564C23.0625 33.5908 22.9141 34.0518 22.8516 35.3096C22.7891 36.5205 22.6797 36.7861 22.1172 37.1611C21.8203 37.3643 21.7422 37.3721 20.7031 37.4033C19.1328 37.4424 18.6641 37.2549 18.2891 36.458C17.9609 35.7705 17.4141 35.3799 16.7656 35.3799C16.375 35.3799 15.8359 35.6611 15.5469 36.0283C15.3516 36.2705 15.3047 36.4111 15.2812 36.833C15.25 37.3018 15.2734 37.3955 15.5391 37.9424C15.9453 38.7627 16.7969 39.6221 17.6094 40.0205C18.4375 40.4268 19.0625 40.5361 20.5469 40.5361C22.5625 40.5361 23.4766 40.2158 24.5625 39.1299C25.5391 38.1611 25.9688 37.083 25.9688 35.6377C25.9688 34.9658 25.9844 34.8877 26.1641 34.7158C26.5 34.3799 26.6875 34.4502 27.5391 35.2705C28.4844 36.1611 29.5156 36.583 30.7734 36.583C32.0078 36.583 32.9844 36.1924 34.0312 35.2705C35.8203 33.708 36.5469 32.4268 36.5469 30.8096C36.5469 29.5518 36.125 28.5205 35.2344 27.5752C34.4141 26.7236 34.3438 26.5361 34.6797 26.2002C34.8516 26.0205 34.9297 26.0049 35.6016 26.0049C37.0469 26.0049 38.125 25.5752 39.0938 24.5986C40.1875 23.5127 40.5 22.6064 40.5 20.5361C40.5 18.4658 40.1875 17.5596 39.0938 16.4736C38.125 15.4971 37.0469 15.0674 35.6016 15.0674C34.9297 15.0674 34.8516 15.0518 34.6797 14.8721C34.3516 14.5518 34.4609 14.2549 35.1094 13.6221C36.0234 12.7471 36.5234 11.5986 36.5312 10.3408C36.5391 9.95019 36.5 9.44238 36.4453 9.208C36.1875 8.10644 35.4375 7.04394 34.0625 5.833C32.9922 4.88769 32.0234 4.48925 30.7734 4.48925C29.5156 4.48925 28.4844 4.91113 27.5391 5.80175C26.6875 6.62207 26.5 6.69238 26.1641 6.35644C25.9844 6.18457 25.9688 6.10644 25.9688 5.43457C25.9688 3.98925 25.5391 2.91113 24.5625 1.94238C23.4688 0.840816 22.5703 0.536129 20.4688 0.543941C19.4141 0.543941 19.0156 0.575191 18.5625 0.692379Z" fill="white"/>
<path d="M19.0703 11.5908C16.625 12.0049 14.3437 13.4814 12.9766 15.5439C12.0391 16.9658 11.8828 17.6533 12.3359 18.3877C12.6484 18.8877 13.0391 19.0908 13.6797 19.0908C14.375 19.0908 14.7109 18.833 15.2031 17.9268C16.0391 16.3721 17.1328 15.4424 18.7422 14.8877C19.3828 14.6689 19.5312 14.6455 20.4609 14.6455C21.6406 14.6377 22.1484 14.7549 23.1172 15.2236C24.2969 15.8096 25.2266 16.7393 25.8125 17.9189C26.2734 18.8721 26.3906 19.3955 26.3906 20.5361C26.3906 21.6768 26.2656 22.2158 25.8047 23.1611C25.2266 24.3408 24.4062 25.1689 23.0859 25.8799C22.2656 26.3252 22.0078 26.6299 21.9297 27.2314C21.8203 28.1846 22.5156 28.9658 23.4766 28.9736C24.2109 28.9736 25.8359 27.9971 26.9219 26.9111C29.9609 23.8486 30.4141 19.0127 27.9922 15.4424C27.5156 14.7471 26.375 13.583 25.6953 13.1221C23.7656 11.7861 21.3047 11.2158 19.0703 11.5908Z" fill="white"/>
<path d="M13.7031 21.9107C13.4219 21.9654 12.9297 22.1451 12.6094 22.3013C12.0625 22.5747 11.75 22.8638 7.4453 27.1138C4.92968 29.606 2.79687 31.731 2.71093 31.8482C2.49999 32.1451 2.47655 32.1997 1.42968 35.6529C0.617178 38.356 0.492178 38.8326 0.53124 39.1529C0.609365 39.8638 1.1328 40.4107 1.84374 40.5044C2.14843 40.5435 2.68749 40.4185 5.5078 39.6372C7.32812 39.1372 8.92968 38.6763 9.05468 38.6138C9.18749 38.5513 11.3906 36.4029 13.9531 33.8326C18.3984 29.3794 18.6172 29.1451 18.8906 28.5826C19.8047 26.6997 19.4687 24.6451 18.0078 23.1841C16.8437 22.0201 15.2969 21.5669 13.7031 21.9107ZM15.5781 25.1763C16.3828 25.7076 16.5 26.8169 15.8281 27.5591L15.5391 27.8872L14.4219 26.7622L13.2969 25.6372L13.6328 25.3482C13.8203 25.1919 14.0781 25.0279 14.2109 24.9888C14.6016 24.8716 15.25 24.9576 15.5781 25.1763ZM10.4531 32.9654L7.60155 35.8169L6.02343 36.2544C5.15624 36.4966 4.43749 36.6841 4.42187 36.6685C4.41405 36.6607 4.60155 35.9888 4.84374 35.1763L5.28124 33.6997L8.18749 30.7935L11.0859 27.8794L12.1953 28.9888L13.3125 30.106L10.4531 32.9654Z" fill="white"/>
</g>
<defs>
<clipPath id="clip0_56_210">
<rect width="40" height="40" fill="white" transform="translate(0.5 0.536133)"/>
</clipPath>
</defs>
</svg>
