<svg width="24" height="25" viewBox="0 0 24 25" fill="none" xmlns="http://www.w3.org/2000/svg">
<g clip-path="url(#clip0_253_426)">
<path d="M23.7663 12.9266C23.7663 12.1109 23.7001 11.2908 23.559 10.4883H12.2402V15.1093H18.722C18.453 16.5996 17.5888 17.918 16.3233 18.7558V21.7541H20.1903C22.4611 19.6641 23.7663 16.5776 23.7663 12.9266Z" fill="#4285F4"/>
<path d="M12.2401 24.6517C15.4766 24.6517 18.2059 23.5891 20.1945 21.7548L16.3276 18.7564C15.2517 19.4884 13.8627 19.9029 12.2445 19.9029C9.11388 19.9029 6.45946 17.7908 5.50705 14.9512H1.5166V18.0421C3.55371 22.0943 7.7029 24.6517 12.2401 24.6517Z" fill="#34A853"/>
<path d="M5.50277 14.9511C5.00011 13.4607 5.00011 11.8469 5.50277 10.3566V7.26562H1.51674C-0.185266 10.6564 -0.185266 14.6513 1.51674 18.042L5.50277 14.9511Z" fill="#FBBC04"/>
<path d="M12.2401 5.40005C13.9509 5.37359 15.6044 6.01736 16.8434 7.19906L20.2695 3.77301C18.1001 1.7359 15.2208 0.615925 12.2401 0.651199C7.7029 0.651199 3.55371 3.20861 1.5166 7.2652L5.50264 10.3561C6.45064 7.51212 9.10947 5.40005 12.2401 5.40005Z" fill="#EA4335"/>
</g>
<defs>
<clipPath id="clip0_253_426">
<rect width="24" height="24" fill="white" transform="translate(0 0.650391)"/>
</clipPath>
</defs>
</svg>
