<svg width="21" height="21" viewBox="0 0 21 21" fill="none" xmlns="http://www.w3.org/2000/svg">
<g clip-path="url(#clip0_87_9557)">
<path d="M9.54575 1.0371C9.29917 1.11929 9.00954 1.34239 8.85299 1.57331C8.76688 1.70247 8.63381 2.05472 8.44203 2.64963L8.15631 3.53417L7.07999 3.55374C6.04281 3.57331 5.99976 3.57722 5.83146 3.66724C5.10739 4.0508 4.82559 4.82575 5.14262 5.53808C5.28352 5.84728 5.47138 6.02732 6.28156 6.60657C6.64946 6.86881 6.95083 7.09973 6.95866 7.11538C6.96649 7.13495 6.84516 7.53417 6.68469 8.00384C6.42246 8.79836 6.39898 8.88055 6.40289 9.18975C6.40289 9.46763 6.41855 9.56157 6.50465 9.74552C6.63772 10.0273 6.90778 10.3013 7.1935 10.4344C7.38919 10.5283 7.46356 10.54 7.80798 10.54C8.30113 10.54 8.33244 10.5244 9.27177 9.83554C9.67099 9.54591 10.0076 9.30716 10.0232 9.30716C10.0389 9.30716 10.3677 9.53808 10.7512 9.8238C11.6906 10.5166 11.7375 10.54 12.2307 10.54C12.5712 10.54 12.6495 10.5283 12.8452 10.4344C13.1309 10.3013 13.3814 10.0508 13.5262 9.75335C13.624 9.55374 13.6397 9.47937 13.6397 9.18975C13.6397 8.88055 13.6162 8.79444 13.354 8.00384C13.1935 7.53417 13.0722 7.13495 13.08 7.1193C13.0878 7.09973 13.3931 6.86881 13.7571 6.60657C14.5634 6.02732 14.7551 5.84728 14.896 5.53808C15.2131 4.82575 14.9313 4.0508 14.2072 3.66724C14.0389 3.57722 13.9958 3.57331 12.9587 3.55374L11.8823 3.53417L11.5966 2.64963C11.4048 2.05472 11.2718 1.70247 11.1857 1.57331C11.0252 1.33847 10.7356 1.11538 10.4812 1.03319C10.2346 0.954911 9.78449 0.954911 9.54575 1.0371ZM10.2698 3.61636C10.5203 4.37957 10.5908 4.52047 10.8608 4.75922C11.1818 5.04102 11.3657 5.08798 12.3011 5.11538L13.1152 5.13886L12.5947 5.51068C12.309 5.71421 11.9919 5.95687 11.8941 6.04689C11.6397 6.28564 11.4988 6.59092 11.4753 6.95883C11.4596 7.2328 11.4753 7.30325 11.6945 7.98427C11.8236 8.39131 11.9215 8.72008 11.9137 8.72008C11.9058 8.72008 11.6475 8.53612 11.3422 8.30912C10.6338 7.79248 10.5203 7.73378 10.1093 7.71029C9.62794 7.6829 9.4753 7.74552 8.75123 8.27781C8.41072 8.52438 8.12892 8.72008 8.12109 8.71225C8.11718 8.70442 8.21502 8.38348 8.34418 7.99601C8.55945 7.33456 8.57119 7.27194 8.55945 6.97839C8.5477 6.72399 8.52422 6.62223 8.42637 6.43045C8.27765 6.14082 8.11718 5.99209 7.44399 5.51068L6.92344 5.13886L7.73753 5.11538C8.67295 5.08798 8.8569 5.04102 9.17784 4.75922C9.44399 4.52438 9.51444 4.39131 9.76884 3.62027C9.89408 3.24063 10.0076 2.92751 10.0193 2.92751C10.0311 2.92751 10.1446 3.23671 10.2698 3.61636Z" fill="#EDA793"/>
<path d="M4.53598 10.7822C4.28941 10.8644 3.99978 11.0875 3.84322 11.3184C3.75712 11.4476 3.62404 11.7998 3.43226 12.3947L3.14655 13.2793L2.07023 13.2989C1.03305 13.3184 0.989993 13.3223 0.821695 13.4124C0.0976248 13.7959 -0.184176 14.5709 0.13285 15.2832C0.27375 15.5924 0.461617 15.7724 1.27179 16.3517C1.6397 16.6139 1.94107 16.8448 1.9489 16.8605C1.95672 16.8801 1.83539 17.2793 1.67492 17.749C1.41269 18.5435 1.38921 18.6257 1.39312 18.9349C1.39312 19.2127 1.40878 19.3067 1.49489 19.4906C1.62796 19.7724 1.89802 20.0464 2.18373 20.1795C2.37943 20.2734 2.45379 20.2852 2.79821 20.2852C3.29136 20.2852 3.32267 20.2695 4.26201 19.5807C4.66123 19.291 4.99782 19.0523 5.01348 19.0523C5.02913 19.0523 5.3579 19.2832 5.74146 19.5689C6.6808 20.2617 6.72776 20.2852 7.22091 20.2852C7.56142 20.2852 7.6397 20.2734 7.83539 20.1795C8.12111 20.0464 8.3716 19.7959 8.51641 19.4985C8.61426 19.2989 8.62992 19.2245 8.62992 18.9349C8.626 18.6296 8.60643 18.5356 8.34029 17.749C8.18373 17.2793 8.0624 16.8801 8.07023 16.8605C8.07806 16.8448 8.38334 16.6139 8.74733 16.3517C9.11524 16.0895 9.49097 15.7998 9.58491 15.7098C9.74929 15.5533 9.98021 15.1462 9.98021 15.0092C9.98021 14.974 9.99978 14.9427 10.0193 14.9427C10.0428 14.9427 10.0585 14.974 10.0585 15.0092C10.0585 15.1462 10.2894 15.5533 10.4538 15.7098C10.5477 15.7998 10.9274 16.0895 11.2914 16.3517C11.6593 16.6139 11.9606 16.8448 11.9685 16.8605C11.9763 16.8801 11.855 17.2793 11.6945 17.749C11.4323 18.5396 11.4088 18.6257 11.4088 18.9349C11.4088 19.2245 11.4244 19.2989 11.5223 19.4985C11.6671 19.7959 11.9176 20.0464 12.2033 20.1795C12.399 20.2734 12.4773 20.2852 12.8178 20.2852C13.3109 20.2852 13.354 20.2617 14.3011 19.5689C14.6886 19.2832 15.0174 19.0523 15.033 19.0523C15.0487 19.0523 15.3775 19.2832 15.761 19.5689C16.7004 20.2617 16.7473 20.2852 17.2405 20.2852C17.581 20.2852 17.6593 20.2734 17.855 20.1795C18.1407 20.0464 18.3912 19.7959 18.536 19.4985C18.6338 19.2989 18.6495 19.2245 18.6495 18.9349C18.6495 18.6257 18.626 18.5396 18.3599 17.749C18.0585 16.8409 17.9763 16.6961 17.7141 16.5709C17.5614 16.5004 17.2405 16.4887 17.0761 16.5513C16.8256 16.6452 16.5986 16.9779 16.5947 17.2519C16.5947 17.3263 16.673 17.6315 16.7669 17.9251C16.8608 18.2225 16.9313 18.4652 16.9235 18.4652C16.9156 18.4652 16.6573 18.2812 16.352 18.0542C15.6436 17.5376 15.5301 17.4789 15.1192 17.4554C14.6377 17.428 14.4851 17.4906 13.761 18.0229C13.4205 18.2695 13.1387 18.4652 13.1309 18.4574C13.127 18.4495 13.2248 18.1286 13.354 17.7411C13.5693 17.0797 13.581 17.0171 13.5693 16.7235C13.5575 16.4691 13.534 16.3673 13.4362 16.1756C13.2874 15.8859 13.127 15.7372 12.4538 15.2558L11.9332 14.884L12.7473 14.8605C13.6828 14.8331 13.8667 14.7861 14.1876 14.5043C14.4577 14.2656 14.5282 14.1247 14.7786 13.3615C14.9039 12.9818 15.0174 12.6726 15.0291 12.6726C15.0409 12.6726 15.1544 12.9818 15.2796 13.3615C15.5301 14.1247 15.6006 14.2656 15.8706 14.5043C16.2111 14.8018 16.3559 14.8331 17.4871 14.8566L18.4734 14.8722L18.5438 15.0366C18.6377 15.2401 18.8608 15.4398 19.0409 15.475C19.2992 15.5219 19.5614 15.4711 19.718 15.3458C20.0233 15.1032 20.1094 14.7431 19.9685 14.2852C19.8393 13.8781 19.6201 13.6237 19.217 13.4124C19.0487 13.3223 19.0017 13.3184 17.9685 13.2989L16.8921 13.2793L16.6064 12.3947C16.2933 11.4202 16.1916 11.2206 15.8745 10.9857C15.6319 10.8018 15.3618 10.7157 15.0291 10.7157C14.6965 10.7157 14.4264 10.8018 14.1837 10.9857C13.8667 11.2206 13.7649 11.4202 13.4518 12.3947L13.1661 13.2793L12.0898 13.2989C11.0526 13.3184 11.0096 13.3223 10.8413 13.4124C10.442 13.6237 10.1916 13.9173 10.0937 14.2852C10.0663 14.3908 10.0311 14.473 10.0193 14.473C10.0076 14.473 9.9763 14.3908 9.9489 14.2852C9.89019 14.066 9.67101 13.7333 9.4988 13.6002C9.42835 13.5493 9.29528 13.4632 9.19743 13.4124C9.02522 13.3223 8.98608 13.3184 7.9489 13.2989L6.87258 13.2793L6.57903 12.3713C6.38334 11.7685 6.24244 11.4084 6.16416 11.2949C6.00761 11.0758 5.71406 10.8566 5.4714 10.7783C5.22483 10.7 4.77473 10.7 4.53598 10.7822ZM5.26005 13.3615C5.51054 14.1247 5.58099 14.2656 5.85105 14.5043C6.17199 14.7861 6.35594 14.8331 7.29136 14.8605L8.10545 14.884L7.58491 15.2558C7.29919 15.4593 6.98217 15.702 6.88432 15.792C6.62992 16.0308 6.48902 16.336 6.46553 16.7039C6.44988 16.9779 6.46553 17.0484 6.68471 17.7294C6.81387 18.1364 6.91172 18.4652 6.90389 18.4652C6.89606 18.4652 6.63774 18.2812 6.33246 18.0542C5.62404 17.5376 5.51054 17.4789 5.09958 17.4554C4.61817 17.428 4.46553 17.4906 3.74146 18.0229C3.40095 18.2695 3.11915 18.4652 3.11132 18.4574C3.10741 18.4495 3.20526 18.1286 3.33442 17.7411C3.54968 17.0797 3.56142 17.0171 3.54968 16.7235C3.53794 16.4691 3.51445 16.3673 3.41661 16.1756C3.26788 15.8859 3.10741 15.7372 2.43422 15.2558L1.91367 14.884L2.72776 14.8605C3.66318 14.8331 3.84714 14.7861 4.16808 14.5043C4.43422 14.2695 4.50467 14.1364 4.75907 13.3654C4.88432 12.9857 4.99782 12.6726 5.00956 12.6726C5.0213 12.6726 5.13481 12.9818 5.26005 13.3615Z" fill="#EDA793"/>
</g>
<defs>
<clipPath id="clip0_87_9557">
<rect width="20.0391" height="20" fill="white" transform="translate(0 0.618164)"/>
</clipPath>
</defs>
</svg>
