<svg width="12" height="13" viewBox="0 0 12 13" fill="none" xmlns="http://www.w3.org/2000/svg">
<path d="M2.5 7.68655C2.36739 7.68655 2.24022 7.73923 2.14645 7.83299C2.05268 7.92676 2 8.05394 2 8.18655V10.1865C2 10.3192 2.05268 10.4463 2.14645 10.5401C2.24022 10.6339 2.36739 10.6865 2.5 10.6865C2.63261 10.6865 2.75979 10.6339 2.85355 10.5401C2.94732 10.4463 3 10.3192 3 10.1865V10.0205H3.333C3.64251 10.0205 3.93934 9.8976 4.15819 9.67874C4.37705 9.45989 4.5 9.16305 4.5 8.85355C4.5 8.54404 4.37705 8.24721 4.15819 8.02835C3.93934 7.8095 3.64251 7.68655 3.333 7.68655H2.5ZM3.333 9.02055H3V8.68655H3.333C3.37729 8.68655 3.41977 8.70414 3.45109 8.73546C3.48241 8.76678 3.5 8.80926 3.5 8.85355C3.5 8.89784 3.48241 8.94032 3.45109 8.97163C3.41977 9.00295 3.37729 9.02055 3.333 9.02055ZM8.001 8.18555C8.00127 8.05311 8.05406 7.92619 8.1478 7.83264C8.24154 7.73909 8.36857 7.68655 8.501 7.68655H9.499C9.63161 7.68655 9.75879 7.73923 9.85255 7.83299C9.94632 7.92676 9.999 8.05394 9.999 8.18655C9.999 8.31916 9.94632 8.44633 9.85255 8.5401C9.75879 8.63387 9.63161 8.68655 9.499 8.68655H8.999V9.02155H9.499C9.63161 9.02155 9.75879 9.07423 9.85255 9.16799C9.94632 9.26176 9.999 9.38894 9.999 9.52155C9.999 9.65416 9.94632 9.78133 9.85255 9.8751C9.75879 9.96887 9.63161 10.0215 9.499 10.0215H9V10.1855C9.00013 10.2512 8.98733 10.3163 8.96232 10.377C8.93732 10.4377 8.9006 10.4929 8.85426 10.5394C8.76068 10.6333 8.63361 10.6863 8.501 10.6865C8.36839 10.6868 8.24111 10.6344 8.14715 10.5408C8.0532 10.4472 8.00027 10.3202 8 10.1875V8.18555H8.001ZM5.498 7.68655C5.36539 7.68655 5.23822 7.73923 5.14445 7.83299C5.05068 7.92676 4.998 8.05394 4.998 8.18655V10.1865C4.998 10.3192 5.05068 10.4463 5.14445 10.5401C5.23822 10.6339 5.36539 10.6865 5.498 10.6865H6C6.39783 10.6865 6.77936 10.5285 7.06066 10.2472C7.34197 9.9659 7.5 9.58437 7.5 9.18655C7.5 8.78872 7.34197 8.40719 7.06066 8.12589C6.77936 7.84458 6.39783 7.68655 6 7.68655H5.498ZM5.998 9.68655V8.68655H6C6.13261 8.68655 6.25979 8.73923 6.35355 8.83299C6.44732 8.92676 6.5 9.05394 6.5 9.18655C6.5 9.31916 6.44732 9.44633 6.35355 9.5401C6.25979 9.63387 6.13261 9.68655 6 9.68655H5.998ZM7 0.685547H2.5C2.10218 0.685547 1.72065 0.843582 1.43934 1.12489C1.15804 1.40619 1 1.78772 1 2.18555V5.76755C0.707262 5.87105 0.453855 6.06284 0.27474 6.31646C0.0956256 6.57009 -0.000368647 6.87305 1.06392e-06 7.18355V11.1865C1.06392e-06 11.5844 0.158036 11.9659 0.439341 12.2472C0.720646 12.5285 1.10218 12.6865 1.5 12.6865H10.5C10.8978 12.6865 11.2794 12.5285 11.5607 12.2472C11.842 11.9659 12 11.5844 12 11.1865V7.18255C12.0002 6.87222 11.9041 6.56948 11.725 6.31606C11.5459 6.06263 11.2926 5.87099 11 5.76755V4.68355H8.5C8.10218 4.68355 7.72064 4.52551 7.43934 4.24421C7.15804 3.9629 7 3.58137 7 3.18355V0.685547ZM1.5 6.68255H10.5C10.6326 6.68255 10.7598 6.73523 10.8536 6.82899C10.9473 6.92276 11 7.04994 11 7.18255V11.1855C11 11.3182 10.9473 11.4453 10.8536 11.5391C10.7598 11.6329 10.6326 11.6855 10.5 11.6855H1.5C1.36739 11.6855 1.24022 11.6329 1.14645 11.5391C1.05268 11.4453 1 11.3182 1 11.1855V7.18255C1 7.04994 1.05268 6.92276 1.14645 6.82899C1.24022 6.73523 1.36739 6.68255 1.5 6.68255ZM10.706 3.68255H8.5C8.36739 3.68255 8.24022 3.62987 8.14645 3.5361C8.05268 3.44233 8 3.31516 8 3.18255V0.981547L10.706 3.68255Z" fill="white"/>
</svg>
