<svg width="18" height="19" viewBox="0 0 18 19" fill="none" xmlns="http://www.w3.org/2000/svg">
<path d="M3.75 11.1167C3.55109 11.1167 3.36032 11.1958 3.21967 11.3364C3.07902 11.4771 3 11.6678 3 11.8667V14.8667C3 15.0656 3.07902 15.2564 3.21967 15.3971C3.36032 15.5377 3.55109 15.6167 3.75 15.6167C3.94891 15.6167 4.13968 15.5377 4.28033 15.3971C4.42098 15.2564 4.5 15.0656 4.5 14.8667V14.6177H4.9995C5.46376 14.6177 5.90901 14.4333 6.23729 14.105C6.56557 13.7767 6.75 13.3315 6.75 12.8672C6.75 12.403 6.56557 11.9577 6.23729 11.6294C5.90901 11.3012 5.46376 11.1167 4.9995 11.1167H3.75ZM4.9995 13.1177H4.5V12.6167H4.9995C5.06594 12.6167 5.12965 12.6431 5.17663 12.6901C5.22361 12.7371 5.25 12.8008 5.25 12.8672C5.25 12.9337 5.22361 12.9974 5.17663 13.0444C5.12965 13.0913 5.06594 13.1177 4.9995 13.1177ZM12.0015 11.8652C12.0019 11.6666 12.0811 11.4762 12.2217 11.3359C12.3623 11.1955 12.5528 11.1167 12.7515 11.1167H14.2485C14.4474 11.1167 14.6382 11.1958 14.7788 11.3364C14.9195 11.4771 14.9985 11.6678 14.9985 11.8667C14.9985 12.0656 14.9195 12.2564 14.7788 12.3971C14.6382 12.5377 14.4474 12.6167 14.2485 12.6167H13.4985V13.1192H14.2485C14.4474 13.1192 14.6382 13.1983 14.7788 13.3389C14.9195 13.4796 14.9985 13.6703 14.9985 13.8692C14.9985 14.0681 14.9195 14.2589 14.7788 14.3996C14.6382 14.5402 14.4474 14.6192 14.2485 14.6192H13.5V14.8652C13.5002 14.9637 13.481 15.0613 13.4435 15.1524C13.406 15.2434 13.3509 15.3262 13.2814 15.396C13.141 15.5369 12.9504 15.6163 12.7515 15.6167C12.5526 15.6171 12.3617 15.5385 12.2207 15.3981C12.0798 15.2578 12.0004 15.0671 12 14.8682V11.8652H12.0015ZM8.247 11.1167C8.04809 11.1167 7.85732 11.1958 7.71667 11.3364C7.57602 11.4771 7.497 11.6678 7.497 11.8667V14.8667C7.497 15.0656 7.57602 15.2564 7.71667 15.3971C7.85732 15.5377 8.04809 15.6167 8.247 15.6167H9C9.59674 15.6167 10.169 15.3797 10.591 14.9577C11.0129 14.5358 11.25 13.9635 11.25 13.3667C11.25 12.77 11.0129 12.1977 10.591 11.7757C10.169 11.3538 9.59674 11.1167 9 11.1167H8.247ZM8.997 14.1167V12.6167H9C9.19891 12.6167 9.38968 12.6958 9.53033 12.8364C9.67098 12.9771 9.75 13.1678 9.75 13.3667C9.75 13.5656 9.67098 13.7564 9.53033 13.8971C9.38968 14.0377 9.19891 14.1167 9 14.1167H8.997ZM10.5 0.615234H3.75C3.15326 0.615234 2.58097 0.852287 2.15901 1.27424C1.73705 1.6962 1.5 2.2685 1.5 2.86523V8.23823C1.06089 8.39348 0.680782 8.68117 0.41211 9.06161C0.143438 9.44205 -0.000552971 9.89649 1.59588e-06 10.3622V16.3667C1.59588e-06 16.9635 0.237055 17.5358 0.659011 17.9577C1.08097 18.3797 1.65326 18.6167 2.25 18.6167H15.75C16.3467 18.6167 16.919 18.3797 17.341 17.9577C17.7629 17.5358 18 16.9635 18 16.3667V10.3607C18.0002 9.89524 17.8561 9.44114 17.5875 9.061C17.3188 8.68086 16.9389 8.3934 16.5 8.23823V6.61223H12.75C12.1533 6.61223 11.581 6.37518 11.159 5.95322C10.7371 5.53127 10.5 4.95897 10.5 4.36223V0.615234ZM2.25 9.61073H15.75C15.9489 9.61073 16.1397 9.68975 16.2803 9.8304C16.421 9.97106 16.5 10.1618 16.5 10.3607V16.3652C16.5 16.5641 16.421 16.7549 16.2803 16.8956C16.1397 17.0362 15.9489 17.1152 15.75 17.1152H2.25C2.05109 17.1152 1.86032 17.0362 1.71967 16.8956C1.57902 16.7549 1.5 16.5641 1.5 16.3652V10.3607C1.5 10.1618 1.57902 9.97106 1.71967 9.8304C1.86032 9.68975 2.05109 9.61073 2.25 9.61073ZM16.059 5.11073H12.75C12.5511 5.11073 12.3603 5.03172 12.2197 4.89106C12.079 4.75041 12 4.55965 12 4.36073V1.05923L16.059 5.11073Z" fill="white"/>
</svg>
