<svg width="14" height="14" viewBox="0 0 14 14" fill="none" xmlns="http://www.w3.org/2000/svg">
<path d="M3.41406 8.26939L7.36406 12.2194C7.54171 12.4088 7.63869 12.66 7.63448 12.9197C7.63026 13.1793 7.52518 13.4272 7.34146 13.6108C7.15775 13.7944 6.90982 13.8993 6.65014 13.9033C6.39045 13.9073 6.13938 13.8102 5.95006 13.6324L0.293058 7.97639C0.199873 7.88373 0.125924 7.77357 0.0754624 7.65224C0.0250011 7.53091 -0.000976563 7.40079 -0.000976562 7.26939C-0.000976562 7.13798 0.0250011 7.00787 0.0754624 6.88653C0.125924 6.7652 0.199873 6.65504 0.293058 6.56239L5.95006 0.905386C6.0423 0.809876 6.15265 0.733693 6.27465 0.681284C6.39666 0.628875 6.52788 0.601289 6.66066 0.600135C6.79344 0.598982 6.92512 0.624283 7.04801 0.674564C7.17091 0.724845 7.28256 0.799098 7.37645 0.892991C7.47035 0.986884 7.5446 1.09854 7.59488 1.22143C7.64516 1.34433 7.67046 1.47601 7.66931 1.60879C7.66815 1.74157 7.64057 1.87279 7.58816 1.99479C7.53575 2.11679 7.45957 2.22714 7.36406 2.31939L3.41406 6.26939H13.0001C13.2653 6.26939 13.5196 6.37474 13.7072 6.56228C13.8947 6.74981 14.0001 7.00417 14.0001 7.26939C14.0001 7.5346 13.8947 7.78896 13.7072 7.97649C13.5196 8.16403 13.2653 8.26939 13.0001 8.26939H3.41406Z" fill="white"/>
</svg>
