<svg width="60" height="61" viewBox="0 0 60 61" fill="none" xmlns="http://www.w3.org/2000/svg">
<path d="M39.4231 2.91564C38.3755 3.36922 37.5697 4.08749 36.9217 5.14008C36.6024 5.66527 36.2979 6.29732 36.1966 6.68172L36.0291 7.34214L34.0687 7.83705C31.8083 8.4216 30.9465 8.81201 29.6405 9.83683C26.8337 12.0419 25.1961 15.5696 25.4598 18.8668C25.5571 20.1074 25.6426 19.9573 24.6709 20.2629C21.6724 21.2092 17.8905 23.2294 15.6463 25.0934L14.8894 25.7201L14.1463 25.5417C12.7991 25.2227 12.0056 25.2163 10.7214 25.5142C9.35151 25.832 8.73994 26.1343 7.65402 27.0278C6.34724 28.0929 5.36109 29.8054 5.09587 31.4709C4.71368 33.8854 5.57662 36.3518 7.36087 37.993L7.87381 38.4755L7.87335 39.3378C7.85958 44.4637 10.415 48.9536 15.0512 51.9982C20.6081 55.6413 27.9173 56.6824 35.5869 54.9131C39.0972 54.0987 41.9213 52.9623 44.7058 51.2236C46.0538 50.3795 46.6308 49.8847 46.8169 49.3904C47.3905 47.9742 46.0924 46.4407 44.6062 46.7755C44.3684 46.8307 43.7993 47.1432 43.1549 47.5634C37.4383 51.3558 29.5516 52.7945 23.0191 51.2123C20.9596 50.7177 19.4305 50.09 17.6557 49.008C13.7588 46.644 11.7552 43.2793 11.7804 39.1531C11.7913 37.2559 11.431 36.4372 10.06 35.1513C8.46255 33.6673 8.54763 31.3117 10.2508 29.9241C10.6807 29.5737 10.8527 29.4937 11.5566 29.3304C12.3272 29.1517 12.4172 29.1508 13.3727 29.3803C15.3217 29.8304 16.221 29.6017 17.9907 28.1986C19.2537 27.2039 19.86 26.7925 21.1277 26.0774C25.3132 23.7229 30.2423 22.4991 35.1107 22.6127C36.9246 22.6531 37.9341 22.7697 39.7183 23.1578C41.9251 23.6383 42.8332 23.4477 44.385 22.1854C45.1418 21.5587 45.223 21.5198 45.9936 21.341C46.6975 21.1777 46.8871 21.1738 47.4274 21.2991C49.558 21.7973 50.6738 23.8843 49.9003 25.9083C49.2355 27.6666 49.2724 28.5602 50.1176 30.2589C51.6408 33.324 51.6782 36.5534 50.2386 39.8548C49.7678 40.9365 49.7037 41.222 49.8295 41.7642C50.048 42.706 51.239 43.4322 52.1903 43.2115C52.5042 43.1387 53.063 42.7384 53.3027 42.4321C53.5402 42.1164 54.1943 40.5712 54.4947 39.6193C55.652 35.9222 55.3782 32.1061 53.7068 28.7044L53.3246 27.9209L53.5851 27.2289C54.1375 25.8075 54.2063 24.5484 53.8216 22.9334C53.3332 20.8713 52.3889 19.5666 50.5298 18.424C49.6977 17.9053 49.3425 17.7571 48.5144 17.5582C47.1152 17.2312 46.4426 17.2269 45.0632 17.5469C43.7694 17.847 43.062 18.2117 42.0193 19.0751L41.4284 19.5531L40.2152 19.2932C37.2156 18.6357 33.9179 18.5085 30.6275 18.9311C29.4383 19.0767 29.4287 19.0789 29.3736 18.841C29.2897 18.4795 29.3763 17.4269 29.557 16.6932C30.0035 14.8152 31.3081 13.1792 33.1172 12.2482C33.6622 11.9614 34.129 11.813 35.2896 11.5438L36.7831 11.1973L37.1768 11.7275C38.2977 13.2318 40.062 14.0957 41.9483 14.0591C42.8464 14.0412 43.3981 13.9132 44.2482 13.5154C46.4495 12.5035 47.7347 10.481 47.685 8.1066C47.6579 6.77958 47.2209 5.58772 46.342 4.47836C45.6903 3.65712 44.3521 2.81473 43.3468 2.5868C42.0018 2.27729 40.5973 2.40263 39.4231 2.91564ZM42.5022 6.42182C43.1664 6.64868 43.538 7.08377 43.7123 7.83529C43.8735 8.52974 43.727 9.06498 43.2349 9.58012C42.7839 10.0557 41.8655 10.2888 41.2438 10.0721C40.0591 9.67533 39.5479 8.25006 40.2055 7.19526C40.695 6.41002 41.5884 6.11253 42.5022 6.42182Z" fill="white"/>
<path d="M20.5058 31.8655C18.6264 32.7527 17.5908 34.7273 17.8641 36.8994C17.9824 37.8845 18.4831 38.5302 19.2826 38.7357C19.8794 38.888 20.6594 38.707 21.1281 38.3076C21.6641 37.8524 21.775 37.4658 21.7296 36.2332C21.7155 36.0861 21.7716 35.8525 21.8476 35.7046C21.9556 35.479 22.0705 35.4123 22.47 35.3196C22.8696 35.2269 23.002 35.2362 23.1984 35.3912C23.3317 35.4906 23.4849 35.6756 23.5371 35.8139C24.0552 36.9668 24.3183 37.2366 25.1346 37.4282C25.8214 37.5796 26.338 37.4297 26.8893 36.9108C27.1686 36.6455 27.2862 36.4178 27.3954 35.9814C27.5134 35.4528 27.5037 35.3247 27.312 34.7576C26.3454 31.8441 23.2974 30.5462 20.5058 31.8655Z" fill="white"/>
<path d="M37.3437 27.9593C35.4643 28.8464 34.4287 30.821 34.702 32.9932C34.8203 33.9783 35.321 34.624 36.1205 34.8295C36.7173 34.9818 37.4973 34.8008 37.966 34.4013C38.502 33.9461 38.6055 33.5713 38.5631 32.3079C38.5326 31.3125 39.9596 30.9814 40.3705 31.8886C40.8953 33.0701 41.1562 33.3304 41.9725 33.5219C42.6593 33.6734 43.1759 33.5235 43.7272 33.0046C44.0065 32.7393 44.124 32.5115 44.2333 32.0751C44.3513 31.5465 44.3416 31.4184 44.1499 30.8514C43.1833 27.9378 40.1353 26.6399 37.3437 27.9593Z" fill="white"/>
<path d="M23.1514 41.4974C22.2907 42.2384 22.164 43.4206 22.853 44.2733C23.1499 44.6455 24.0575 45.1869 25.2402 45.7044C26.6602 46.3374 28.4993 46.7027 30.3915 46.7349C31.4192 46.7571 31.6139 46.732 33.5355 46.2862C35.1812 45.9044 35.7337 45.7361 36.3474 45.4433C38.7404 44.3067 40.6226 42.6971 41.8376 40.7611C42.349 39.9407 42.4329 39.7408 42.4309 39.3002C42.4433 38.0141 41.3312 37.1092 40.0945 37.3961C39.4381 37.5484 39.1163 37.8035 38.6992 38.5118C37.2038 41.0542 34.1388 42.7076 30.7734 42.8067C28.8206 42.8588 27.3225 42.4945 25.7507 41.5961C25.3471 41.3689 24.8652 41.1499 24.6668 41.1157C24.199 41.0438 23.4687 41.2232 23.1514 41.4974Z" fill="white"/>
</svg>
