<svg width="41" height="42" viewBox="0 0 41 42" fill="none" xmlns="http://www.w3.org/2000/svg">
<g clip-path="url(#clip0_56_203)">
<path d="M25.3476 4.7927C25.448 4.83012 25.7603 4.95191 26.0354 5.05806C30.2509 6.65074 33.371 10.5908 34.0129 15.1106C34.4654 18.2411 33.7299 21.4313 31.9755 24.0252C31.5562 24.6424 30.8404 25.5033 30.3724 25.952L30.0525 26.2652L31.1591 30.9838C32.2045 35.4423 32.2626 35.7154 32.1676 35.9727C32.0617 36.2752 31.8645 36.4741 31.5312 36.6135C31.3325 36.7029 31.2276 36.6849 28.7999 36.1301L26.2817 35.5538L24.37 37.1413C23.3161 38.0176 22.3749 38.7637 22.2787 38.7955C21.8377 38.9572 21.2939 38.7464 21.0809 38.3206C21.0165 38.1893 20.4966 36.1211 19.9388 33.7232L18.9122 29.3579L18.4876 29.2777L18.063 29.1976L15.1627 32.6528C13.5657 34.5537 12.1745 36.1622 12.0691 36.2328C11.6808 36.4888 11.1273 36.4055 10.8218 36.0532C10.7417 35.9592 10.2404 34.8781 9.70811 33.6396L8.73825 31.3965L6.31665 30.8159C4.10676 30.2922 3.87074 30.2226 3.66415 30.0576C3.53731 29.9593 3.40179 29.8112 3.35895 29.7328C3.24028 29.5136 3.22877 29.1014 3.32946 28.9069C3.37981 28.8096 4.79058 27.0897 6.46682 25.0847L9.51455 21.4392L9.44417 21.2178C9.09503 20.0705 8.98846 19.6562 8.88226 19.01C8.64233 17.5746 8.64861 16.2521 8.89621 14.7753C9.51988 11.1355 11.6398 8.00716 14.7779 6.08242C17.0768 4.67537 19.6783 4.03614 22.3785 4.21876C22.9895 4.26117 24.9608 4.63961 25.3476 4.7927ZM22.1468 6.20439C21.2377 6.15276 20.6856 6.17888 19.8222 6.30869C16.0136 6.88707 12.8189 9.45357 11.4135 13.0515C11.3043 13.3395 11.1109 13.983 10.9979 14.4885C9.83755 19.4138 12.2768 24.4415 16.8959 26.6348C17.6801 27.0117 19.403 27.4882 20.2771 27.5725C24.6879 28.024 28.8292 25.8115 30.9153 21.904C31.3562 21.0804 31.6071 20.396 31.8521 19.3621C32.1902 17.9067 32.2435 16.8752 32.0435 15.4151C31.6399 12.4532 29.9195 9.691 27.4426 8.01895C26.6533 7.49068 25.9143 7.12448 24.7267 6.69292C24.319 6.5417 22.6852 6.23643 22.1468 6.20439ZM27.9024 27.8508C26.2641 28.8889 23.6237 29.6349 21.5909 29.631C21.3058 29.6248 21.0612 29.6487 21.0536 29.6811C21.0291 29.7844 22.52 36.0205 22.5683 36.0183C22.5972 36.0115 23.2734 35.462 24.0722 34.7982C24.906 34.1018 25.6225 33.555 25.7621 33.513C25.985 33.4362 26.1287 33.4634 27.9186 33.8875C29.1593 34.1815 29.8503 34.318 29.8595 34.2792C29.881 34.1888 28.3346 27.6393 28.2959 27.6301C28.2765 27.6255 28.0957 27.726 27.9024 27.8508ZM8.2711 26.0241C7.06953 27.466 6.07749 28.6572 6.07289 28.6766C6.06983 28.6895 6.96341 28.9218 8.05883 29.195L10.0574 29.6891L10.2216 29.9464C10.3103 30.0902 10.7025 30.9407 11.0905 31.8379C11.4784 32.7352 11.8081 33.4753 11.8259 33.4863C11.8647 33.4955 15.9951 28.5642 16.015 28.4802C16.0227 28.4479 15.93 28.3782 15.8053 28.3282C14.6328 27.8046 12.9613 26.535 11.965 25.4117C11.5778 24.9719 10.7985 23.941 10.6222 23.6194C10.5531 23.5075 10.494 23.4116 10.481 23.4085C10.4681 23.4055 9.47913 24.5838 8.2711 26.0241Z" fill="#EDA793"/>
<path d="M23.6621 8.79546C23.7643 8.8538 23.9063 9.00346 23.9738 9.12182C24.0413 9.24018 24.4081 10.2552 24.7908 11.3764L25.4876 13.4183L27.4313 14.4317C28.5011 14.9855 29.4612 15.5133 29.5557 15.6039C29.9138 15.9072 29.9462 16.5768 29.6156 16.9352C29.5314 17.0313 28.6858 17.6908 27.736 18.3871C26.2947 19.4582 26.0126 19.6984 25.9712 19.8729C25.9452 19.9827 25.7967 20.8689 25.6396 21.8485C25.484 22.8217 25.3217 23.7659 25.2819 23.9339C25.1854 24.341 24.9633 24.616 24.6296 24.728C24.1484 24.8869 23.9523 24.7927 21.9925 23.3865L20.2051 22.1167L18.0475 22.438C16.8593 22.6137 15.8013 22.7588 15.7047 22.7632C15.2457 22.7704 14.7527 22.2305 14.7774 21.7518C14.7855 21.6309 15.0868 20.5899 15.4415 19.4387L16.1019 17.3431L15.0899 15.3357C14.5251 14.2055 14.0764 13.2188 14.0603 13.0853C14.0241 12.6331 14.3713 12.1763 14.8483 12.0641C14.9495 12.0403 16.0138 12.0127 17.2055 11.9948L19.3733 11.9762L20.9423 10.4235C21.8065 9.57049 22.5898 8.82798 22.6922 8.77034C22.8585 8.67327 23.254 8.61686 23.4061 8.66653C23.4384 8.67419 23.5535 8.73559 23.6621 8.79546ZM21.4935 12.6766C20.7536 13.4089 20.2628 13.8385 20.1216 13.887C20.0029 13.9271 19.1868 13.9726 18.3107 13.9833C17.4347 13.9941 16.7118 14.0207 16.7056 14.0466C16.6995 14.0724 17.0054 14.7113 17.3916 15.4717C17.7714 16.2305 18.1106 16.9592 18.1396 17.0957C18.1891 17.319 18.1585 17.4482 17.7415 18.7758C17.4935 19.5632 17.2737 20.2891 17.2523 20.3796C17.214 20.5411 17.214 20.5411 18.8555 20.2955C20.2509 20.0802 20.5422 20.0605 20.7558 20.1384C20.8934 20.1915 21.5543 20.6279 22.2254 21.1077C22.8965 21.5875 23.4781 21.9846 23.5168 21.9938C23.5685 22.006 23.6585 21.5974 23.8425 20.4467C24.0195 19.3831 24.1398 18.8179 24.2168 18.6655C24.3034 18.5018 24.7371 18.1405 25.6564 17.4575C26.3858 16.9138 26.9585 16.4557 26.9357 16.4367C26.9129 16.4176 26.2579 16.0713 25.4733 15.667C24.2933 15.0598 24.0255 14.894 23.8927 14.7055C23.7993 14.5811 23.5032 13.8148 23.2323 12.9999C22.9548 12.1834 22.7163 11.5195 22.6859 11.5328C22.6634 11.5411 22.1253 12.0551 21.4935 12.6766Z" fill="#EDA793"/>
</g>
<defs>
<clipPath id="clip0_56_203">
<rect width="34" height="34" fill="white" transform="matrix(-0.973052 -0.230585 -0.230585 0.973052 40.9617 8.45215)"/>
</clipPath>
</defs>
</svg>
