<svg width="42" height="44" viewBox="0 0 42 44" fill="none" xmlns="http://www.w3.org/2000/svg">
<path d="M13.7648 1.79148C11.8491 1.65687 9.87413 2.61334 8.70913 4.24323L8.35024 4.74911L5.39056 15.6861C2.10072 27.8552 2.24105 27.2228 2.55657 28.6182C2.8763 30.0342 3.69597 31.2151 4.95766 32.0873L5.65249 32.5745L11.525 34.1771L17.4066 35.7822L17.6991 36.249C19.1886 38.5902 22.0427 40.1512 25.0218 40.2309C25.8109 40.2578 27.4279 40.0211 28.0324 39.7946C28.2065 39.7248 28.3733 39.6821 28.4005 39.6894C28.4367 39.6991 28.9281 40.5105 29.5009 41.4893C30.5953 43.3847 30.83 43.6321 31.4957 43.6843C32.3796 43.756 33.1431 42.8634 32.9484 41.9955C32.9123 41.8402 32.2281 40.5887 31.4298 39.2193C30.1781 37.0778 29.9362 36.712 29.6543 36.5684C29.1712 36.3419 28.6902 36.3975 27.9448 36.7513C26.1717 37.6065 24.3374 37.6393 22.617 36.8482C20.5422 35.8941 19.1803 33.9465 18.9897 31.6135C18.9094 30.5724 19.2605 29.0448 19.8132 28.1054C20.4083 27.0802 21.0677 26.4315 22.1269 25.8123C22.8736 25.3812 23.2333 25.2348 23.927 25.1099C24.9931 24.9004 25.8232 24.9189 26.7835 25.1762C29.1119 25.8001 30.8147 27.6352 31.2861 30.0434C31.4705 30.9862 31.766 31.4052 32.373 31.5679C33.1703 31.7815 33.894 31.3637 34.1076 30.5664C34.212 30.1768 34.0729 29.2462 33.7653 28.3287C33.321 27.0153 32.1945 25.2763 31.2457 24.4686L30.9541 24.2157L32.4422 18.662C33.6657 14.0959 33.9177 13.0467 33.8836 12.7754C33.8201 12.3603 30.3399 6.35899 30.0387 6.14233C29.7507 5.94865 14.3943 1.83392 13.7648 1.79148ZM29.6597 10.8182L31.006 13.1502L29.7291 17.9156L28.4522 22.6811L27.2418 22.415C24.9822 21.897 23.2038 22.1196 21.0317 23.1592L20.3964 23.4648L15.8846 22.2558C11.5359 21.0906 11.3522 21.0511 11.0162 21.1456C9.9712 21.4579 9.66272 22.7541 10.4648 23.4933C10.7985 23.8061 10.8348 23.8158 14.3681 24.7626C16.325 25.2869 17.9238 25.7347 17.9165 25.7619C17.9092 25.7891 17.7009 26.1314 17.4576 26.5323C16.5828 27.9487 16.029 30.3055 16.1842 31.9007C16.2092 32.1696 16.2252 32.4361 16.2155 32.4723C16.2058 32.5086 14.0695 31.9653 11.4742 31.2504L6.74316 29.9536L6.30798 29.5846C5.72252 29.0878 5.47405 28.7105 5.31232 28.0457L5.16919 27.4927L7.9944 16.8402C10.649 6.86045 10.845 6.16528 11.1016 5.78737C11.6028 5.07685 12.5713 4.57895 13.44 4.59811C13.6038 4.60314 17.0085 5.4863 21.0244 6.55266L28.32 8.49779L29.6597 10.8182Z" fill="#EDA793"/>
<path d="M25.5977 12.3515C24.794 12.5246 24.7328 12.6441 24.0191 15.3077C23.4778 17.3281 23.4085 17.6591 23.4782 17.9788C23.6986 19.0768 25.121 19.4579 25.879 18.6221C26.0993 18.38 26.186 18.0926 26.7359 15.9677C27.3059 13.7317 27.3381 13.5753 27.2201 13.2912C26.9122 12.5193 26.3423 12.182 25.5977 12.3515Z" fill="#EDA793"/>
<path d="M19.6722 12.1429C19.1658 12.2208 18.7527 12.5665 18.5437 13.0931C18.4346 13.3552 18.2095 14.1591 18.0358 14.8797C17.7523 16.0466 17.7218 16.2327 17.8254 16.5711C17.9981 17.1223 18.3548 17.4218 18.9492 17.5228C19.3575 17.5934 19.5104 17.5664 19.8575 17.3584L20.2801 17.1221L20.8001 15.2902C21.2721 13.6009 21.3044 13.4444 21.2141 13.1289C21.1581 12.9391 21.0279 12.7003 20.9296 12.5963C20.6774 12.3054 20.0396 12.0762 19.6722 12.1429Z" fill="#EDA793"/>
<path d="M13.5448 12.0351C12.8528 12.1895 12.641 12.4726 12.323 13.6595C12.0414 14.7104 12.0483 14.9745 12.3607 15.4757C12.4958 15.6964 12.66 15.8084 13.0537 15.9333C13.6848 16.1509 14.1097 16.0512 14.5296 15.5713C14.7891 15.2913 14.8534 15.124 15.0568 14.2561C15.2572 13.4358 15.2743 13.2268 15.1671 12.9747C14.8593 12.2028 14.2893 11.8656 13.5448 12.0351Z" fill="#EDA793"/>
</svg>
